<svg width="301" height="67" viewBox="0 0 301 67" fill="none" xmlns="http://www.w3.org/2000/svg">
<path d="M292.285 1.96312H299.408V65.2128H291.62L256.481 11.4601V65.2128H249.264V1.96312H258.761L292.285 53.7215V1.96312Z" fill="white"/>
<path d="M184.779 33.398C184.779 26.8768 185.951 21.2103 188.293 16.3985C190.636 11.5234 193.896 7.75626 198.075 5.09712C202.317 2.37466 207.255 1.01343 212.89 1.01343C217.765 1.01343 222.102 1.93147 225.901 3.76754C229.7 5.54031 232.739 8.07283 235.018 11.3651C237.297 14.6574 238.627 18.4562 239.007 22.7614H231.599C231.346 18.1396 229.542 14.4991 226.186 11.84C222.894 9.11749 218.493 7.75626 212.985 7.75626C206.464 7.75626 201.367 10.0039 197.695 14.4991C194.023 18.9943 192.187 25.294 192.187 33.398C192.187 41.5654 193.928 47.8967 197.41 52.3919C200.956 56.8872 205.894 59.1348 212.225 59.1348C217.48 59.1348 221.754 57.267 225.046 53.5316C228.339 49.7961 230.206 44.7627 230.65 38.4314H211.751V32.0685H239.007V65.2128H233.309L232.834 51.4422C230.808 55.9375 227.959 59.483 224.287 62.0788C220.678 64.6747 216.562 65.9726 211.941 65.9726C206.496 65.9726 201.747 64.6113 197.695 61.8889C193.643 59.1664 190.477 55.3676 188.198 50.4925C185.919 45.6174 184.779 39.9193 184.779 33.398Z" fill="white"/>
<path d="M168.35 1.96312H175.567V65.2128H168.35V1.96312Z" fill="white"/>
<path d="M138.529 37.4817L130.552 36.532C124.474 35.8356 119.789 34.0628 116.496 31.2137C113.204 28.3646 111.558 24.4709 111.558 19.5325C111.558 13.8976 113.584 9.43406 117.636 6.14178C121.751 2.78619 127.323 1.1084 134.351 1.1084C141.125 1.1084 146.602 2.84951 150.78 6.33172C154.959 9.81394 157.333 14.5624 157.903 20.5771H150.59C149.894 16.2086 148.216 12.9796 145.557 10.8903C142.961 8.73762 139.194 7.66129 134.256 7.66129C129.57 7.66129 125.803 8.73762 122.954 10.8903C120.168 12.9796 118.776 15.7654 118.776 19.2476C118.776 22.0967 119.82 24.3126 121.91 25.8954C124.062 27.4783 127.259 28.5546 131.501 29.1244L139.289 30.0741C152.521 31.6569 159.138 37.64 159.138 48.0233C159.138 51.6955 158.188 54.8611 156.289 57.5203C154.452 60.1794 151.825 62.2688 148.406 63.7883C145.05 65.2445 141.093 65.9726 136.535 65.9726C129.064 65.9726 123.112 64.1998 118.681 60.6543C114.249 57.1088 111.716 52.3603 111.083 46.4089H118.586C119.345 50.8408 121.181 54.133 124.094 56.2857C127.07 58.375 131.248 59.4197 136.63 59.4197C141.188 59.4197 144.861 58.4067 147.646 56.3807C150.495 54.3546 151.92 51.6005 151.92 48.1183C151.92 42.0403 147.456 38.4947 138.529 37.4817Z" fill="white"/>
<path d="M104.056 1.96312V8.80092H68.537V29.5043H101.302V36.3421H68.537V58.47H104.056V65.2128H61.3193V1.96312H104.056Z" fill="white"/>
<path d="M24.6611 1.96312C30.106 1.96312 34.8861 3.32435 39.0015 6.04681C43.1168 8.76927 46.3141 12.5997 48.5934 17.5381C50.936 22.4132 52.1073 28.1431 52.1073 34.7276C52.1073 40.8057 51.031 46.1556 48.8783 50.7775C46.7257 55.336 43.7183 58.8815 39.8562 61.414C36.0574 63.9466 31.6255 65.2128 26.5605 65.2128H1.01367V1.96312H24.6611ZM8.23136 8.61098V58.565H25.6108C31.5622 58.565 36.2157 56.4756 39.5713 52.297C42.9269 48.1183 44.6047 42.2619 44.6047 34.7276C44.6047 26.4336 42.7686 20.0073 39.0965 15.4488C35.4876 10.8903 30.3593 8.61098 23.7114 8.61098H8.23136Z" fill="white"/>
<path d="M299.407 1.96289H292.284V53.7217L258.761 1.96289H249.264V65.2129H256.481V11.46L291.62 65.2129H299.407V1.96289ZM300.421 66.2266H291.071L257.495 14.8633V66.2266H248.25V0.949219H259.312L291.271 50.292V0.949219H300.421V66.2266Z" fill="black"/>
<path d="M192.187 33.3984C192.187 25.5475 193.91 19.3898 197.356 14.9258L197.695 14.499C201.367 10.004 206.464 7.75586 212.985 7.75586L213.498 7.76074C218.767 7.84313 222.996 9.20257 226.186 11.8398C229.436 14.4159 231.232 17.9131 231.571 22.3311L231.599 22.7617H239.007C238.651 18.7255 237.46 15.1341 235.435 11.9883L235.018 11.3652C232.881 8.2789 230.077 5.86033 226.604 4.10938L225.901 3.76758C222.34 2.04625 218.305 1.13199 213.798 1.02441L212.89 1.01367C207.255 1.01375 202.317 2.37528 198.075 5.09766L197.686 5.34961C193.693 7.99272 190.562 11.6758 188.293 16.3984C185.95 21.2102 184.779 26.8772 184.779 33.3984L184.793 34.6113C184.927 40.6284 186.062 45.9219 188.198 50.4922C190.478 55.3673 193.643 59.1662 197.695 61.8887C201.621 64.526 206.199 65.8863 211.432 65.9688L211.94 65.9727C216.562 65.9727 220.677 64.6748 224.286 62.0791C227.958 59.4833 230.808 55.9376 232.834 51.4424L233.309 65.2129H239.007V32.0684H211.75V38.4316H230.649C230.206 44.7628 228.338 49.7958 225.046 53.5312C221.754 57.2667 217.48 59.1347 212.226 59.1348V58.1211C217.208 58.121 221.198 56.3651 224.286 52.8613C227.21 49.5432 228.986 45.0972 229.546 39.4453H210.737V31.0547H240.021V66.2266H232.329L231.951 55.2793C230.069 58.3492 227.713 60.8941 224.877 62.9004L224.878 62.9014C221.09 65.6263 216.766 66.9863 211.94 66.9863C206.318 66.9863 201.368 65.5779 197.13 62.7305C192.91 59.895 189.629 55.9462 187.28 50.9219C184.926 45.8871 183.766 40.037 183.766 33.3984C183.766 26.7565 184.959 20.932 187.382 15.9551C189.798 10.9281 193.179 7.01127 197.53 4.24219C201.954 1.40416 207.086 7.53198e-05 212.89 0C217.894 0 222.386 0.94332 226.342 2.85547C230.29 4.70025 233.468 7.34445 235.852 10.7881C238.239 14.2363 239.623 18.2068 240.017 22.6729L240.113 23.7754H230.64L230.587 22.8174C230.348 18.4589 228.665 15.0979 225.557 12.6348L225.548 12.6279L225.54 12.6211C222.477 10.0879 218.327 8.76958 212.985 8.76953C206.726 8.76953 201.934 10.912 198.479 15.1406C195.004 19.3949 193.2 25.4369 193.2 33.3984C193.2 41.4318 194.914 47.5103 198.206 51.7646L198.522 52.1543C201.828 56.1191 206.357 58.1211 212.226 58.1211V59.1348L211.636 59.1279C205.587 58.9918 200.845 56.7463 197.41 52.3916C194.037 48.0368 192.297 41.9592 192.191 34.1582L192.187 33.3984Z" fill="black"/>
<path d="M175.567 1.96289H168.35V65.2129H175.567V1.96289ZM176.581 66.2266H167.336V0.949219H176.581V66.2266Z" fill="black"/>
<path d="M119.439 45.3955L119.584 46.2373C120.31 50.4723 122.038 53.5019 124.688 55.4639C127.428 57.3834 131.369 58.4062 136.63 58.4062V59.4199L135.635 59.4072C130.894 59.2889 127.141 58.3129 124.376 56.4785L124.094 56.2861C121.181 54.1335 119.345 50.841 118.585 46.4092H111.083C111.716 52.3605 114.249 57.1088 118.681 60.6543C122.974 64.089 128.693 65.8605 135.839 65.9678L136.534 65.9727C140.808 65.9727 144.553 65.3326 147.77 64.0527L148.406 63.7881C151.825 62.2686 154.452 60.1794 156.288 57.5205C158.069 55.0276 159.015 52.0893 159.126 48.7061L159.138 48.0234C159.138 37.8024 152.726 31.8448 139.904 30.1514L139.289 30.0742L131.501 29.124C127.259 28.5542 124.062 27.4783 121.909 25.8955C119.95 24.4116 118.91 22.3712 118.787 19.7744L118.775 19.248C118.775 15.8745 120.083 13.1541 122.697 11.0879L122.954 10.8906C125.803 8.73805 129.57 7.6612 134.255 7.66113C139.193 7.66113 142.961 8.73798 145.557 10.8906C148.216 12.9799 149.893 16.2087 150.59 20.5771H157.902C157.35 14.7506 155.106 10.1121 151.167 6.66211L150.78 6.33203C146.732 2.9586 141.466 1.21867 134.981 1.11328L134.351 1.1084C127.323 1.1084 121.751 2.7861 117.636 6.1416L117.262 6.4541C113.459 9.71434 111.558 14.0737 111.558 19.5322C111.558 24.4706 113.204 28.3648 116.496 31.2139C119.788 34.0629 124.474 35.8358 130.552 36.5322L138.529 37.4814C147.456 38.4945 151.92 42.0403 151.92 48.1182L151.915 48.4424C151.829 51.7717 150.406 54.4181 147.646 56.3809C144.861 58.4068 141.188 59.4199 136.63 59.4199V58.4062C141.043 58.4062 144.486 57.4262 147.05 55.5615L147.059 55.5547C149.642 53.7179 150.906 51.2708 150.906 48.1182C150.906 45.3648 149.913 43.2606 147.941 41.6943C145.921 40.0894 142.789 38.9856 138.415 38.4893L138.409 38.4883L130.437 37.5381V37.5391C124.235 36.8285 119.33 35.007 115.833 31.9805C112.287 28.9118 110.544 24.7208 110.544 19.5322C110.544 13.6202 112.687 8.85691 116.996 5.35547C121.343 1.81118 127.166 0.0947266 134.351 0.0947266C141.302 0.0947722 147.027 1.88456 151.429 5.55273C155.836 9.22584 158.32 14.2328 158.912 20.4814L159.017 21.5908H149.726L149.589 20.7363C148.92 16.5403 147.333 13.5754 144.931 11.6875L144.92 11.6787L144.91 11.6709C142.564 9.72541 139.064 8.6748 134.255 8.6748C129.722 8.67488 126.191 9.7159 123.565 11.6992L123.562 11.7012C121.032 13.5991 119.789 16.0848 119.789 19.248C119.789 21.8085 120.707 23.7107 122.515 25.083C124.47 26.5185 127.469 27.5588 131.623 28.1182L139.408 29.0674C146.135 29.8721 151.332 31.8109 154.855 34.9971C158.411 38.2128 160.151 42.5971 160.151 48.0234C160.151 51.8737 159.152 55.2465 157.121 58.0957L157.122 58.0967C155.164 60.9319 152.379 63.1319 148.817 64.7148L148.81 64.7178C145.299 66.241 141.198 66.9863 136.534 66.9863C128.907 66.9863 122.708 65.1744 118.047 61.4453C113.392 57.721 110.735 52.7202 110.075 46.5166L109.956 45.3955H119.439Z" fill="black"/>
<path d="M104.055 58.4697H68.5361V36.3418H101.301V29.5039H68.5361V8.80078H104.055V1.96289H61.3184V65.2129H104.055V58.4697ZM105.068 9.81445H69.5498V28.4912H102.314V37.3555H69.5498V57.4561H105.068V66.2266H60.3057V0.949219H105.068V9.81445Z" fill="black"/>
<path d="M52.1064 34.7275C52.1064 28.3488 51.007 22.7725 48.8086 17.998L48.377 17.0781C46.1863 12.5133 43.1881 8.92288 39.3838 6.30566L39.001 6.04688C34.8856 3.32442 30.1051 1.96289 24.6602 1.96289V0.949219C30.2825 0.949219 35.2624 2.35775 39.5605 5.20117C43.8448 8.03537 47.1564 12.0151 49.5059 17.0996H49.5068C51.9278 22.1381 53.1201 28.0238 53.1201 34.7275C53.1201 40.9252 52.0226 46.426 49.7969 51.2051L49.7939 51.21C47.5702 55.919 44.4464 59.6129 40.417 62.2568C36.4338 64.9122 31.8018 66.2266 26.5596 66.2266H0V0.949219H24.6602V1.96289H1.0127V65.2129H26.5596C31.6246 65.2129 36.0567 63.9465 39.8555 61.4141C43.4762 59.0398 46.3456 55.7751 48.4639 51.6201L48.8779 50.7773C51.0305 46.1555 52.1064 40.8055 52.1064 34.7275ZM43.5908 34.7275C43.5908 26.5705 41.7837 20.4014 38.3066 16.085L38.3008 16.0781C34.9133 11.7993 30.0992 9.62502 23.7109 9.625H9.24414V57.5518H25.6104V58.5654H8.23047V8.61133H23.7109C30.3588 8.61135 35.4869 10.8907 39.0957 15.4492C42.7678 20.0077 44.6045 26.4337 44.6045 34.7275L44.5996 35.4287C44.4981 42.6261 42.8211 48.2487 39.5703 52.2969C36.2148 56.4754 31.5617 58.5654 25.6104 58.5654V57.5518C31.2931 57.5517 35.64 55.5726 38.7803 51.6621C41.9427 47.724 43.5908 42.123 43.5908 34.7275Z" fill="black"/>
</svg>
