<svg width="97" height="89" viewBox="0 0 97 89" fill="none" xmlns="http://www.w3.org/2000/svg">
<path d="M54.04 76.2324H0V88.6848H54.04V76.2324Z" fill="#F9F8FC"/>
<path d="M35.0654 59.2222H0V0H12.4524V46.7347H35.0526V59.2222H35.0654Z" fill="#F9F8FC"/>
<path d="M72.5703 82.4405C72.5703 85.926 69.7469 88.7495 66.2582 88.7495C62.7695 88.7495 59.9492 85.926 59.9492 82.4405C59.9492 78.955 62.7727 76.1315 66.2582 76.1315C69.7437 76.1315 72.5703 78.955 72.5703 82.4405Z" fill="#F9F8FC"/>
<path d="M71.0776 0L45.1797 59.1967H58.829L71.0903 30.5103L83.355 59.1967H96.9915L71.0776 0Z" fill="#F9F8FC"/>
<path d="M96.9713 78.8725V76.24H88.7588V88.7465H96.9713V86.13H91.3912V83.7236H96.9713V81.0911H91.3912V78.8725H96.9713Z" fill="#F9F8FC"/>
<path d="M81.8817 76.24L76.4004 88.7656H79.2907L81.8817 82.7018L84.4728 88.7656H87.3631L81.8817 76.24Z" fill="#F9F8FC"/>
</svg>
