<svg width="347" height="66" viewBox="0 0 347 66" fill="none" xmlns="http://www.w3.org/2000/svg">
<path d="M318.496 1.01392C323.941 1.01392 328.721 2.37514 332.836 5.0976C336.952 7.82006 340.149 11.6505 342.428 16.5889C344.771 21.464 345.942 27.1938 345.942 33.7784C345.942 39.8564 344.866 45.2064 342.713 49.8283C340.561 54.3868 337.553 57.9323 333.691 60.4648C329.892 62.9974 325.46 64.2636 320.395 64.2636H294.849V1.01392H318.496ZM302.066 7.66178V57.6157H319.446C325.397 57.6157 330.051 55.5264 333.406 51.3478C336.762 47.1691 338.44 41.3126 338.44 33.7784C338.44 25.4844 336.604 19.0581 332.931 14.4996C329.323 9.94105 324.194 7.66178 317.546 7.66178H302.066Z" fill="white"/>
<path d="M277.469 1.01392H284.592V64.2636H276.805L241.666 10.5109V64.2636H234.448V1.01392H243.945L277.469 52.7723V1.01392Z" fill="white"/>
<path d="M226.281 64.2636H218.493L212.415 47.359H185.444L179.461 64.2636H171.578L194.941 1.01392H203.013L226.281 64.2636ZM198.739 9.56117L187.628 41.0911H210.136L198.739 9.56117Z" fill="white"/>
<path d="M165.216 64.2636H127.418V1.01392H134.636V57.5208H165.216V64.2636Z" fill="white"/>
<path d="M99.8763 64.2636H92.0888L86.0107 47.359H59.0394L53.0563 64.2636H45.1738L68.5363 1.01392H76.6087L99.8763 64.2636ZM72.3351 9.56117L61.2237 41.0911H83.7314L72.3351 9.56117Z" fill="white"/>
<path d="M38.8115 64.2636H1.01367V1.01392H8.23136V57.5208H38.8115V64.2636Z" fill="white"/>
<path d="M345.942 33.7783C345.942 27.1938 344.771 21.4639 342.429 16.5889C340.221 11.8048 337.151 8.0609 333.22 5.35645L332.837 5.09766C328.722 2.3752 323.941 1.01367 318.496 1.01367V0C324.118 0 329.097 1.40871 333.396 4.25195C337.68 7.08617 340.992 11.0658 343.342 16.1504L343.565 16.625C345.837 21.5574 346.956 27.2839 346.956 33.7783C346.956 39.9761 345.858 45.4767 343.632 50.2559L343.63 50.2607C341.406 54.9697 338.282 58.6637 334.253 61.3076C330.27 63.963 325.638 65.2773 320.396 65.2773H293.835V0H318.496V1.01367H294.849V64.2637H320.396C325.461 64.2637 329.893 62.9974 333.691 60.4648C337.312 58.0906 340.182 54.8259 342.3 50.6709L342.714 49.8281C344.866 45.2063 345.942 39.8562 345.942 33.7783ZM337.427 33.7783C337.427 25.6214 335.62 19.4522 332.143 15.1357L332.137 15.1289C328.749 10.8501 323.935 8.67586 317.547 8.67578H303.08V56.6025H319.446V57.6162H302.066V7.66211H317.547C324.195 7.66219 329.323 9.94154 332.932 14.5C336.604 19.0585 338.439 25.4845 338.439 33.7783C338.439 41.3126 336.762 47.169 333.406 51.3477C330.051 55.5262 325.398 57.6161 319.446 57.6162V56.6025C325.129 56.6025 329.476 54.6233 332.616 50.7129C335.779 46.7748 337.427 41.1737 337.427 33.7783Z" fill="black"/>
<path d="M284.592 1.01367H277.47V52.7725L243.945 1.01367H234.448V64.2637H241.666V10.5107L276.805 64.2637H284.592V1.01367ZM285.605 65.2773H276.256L242.68 13.9141V65.2773H233.435V0H244.496L276.456 49.3428V0H285.605V65.2773Z" fill="black"/>
<path d="M203.721 0L227.733 65.2773H217.78L217.54 64.6064L211.703 48.373H186.16L180.416 64.6016L180.178 65.2773H170.124L193.99 0.663086L194.234 0H203.721ZM194.94 1.01367L171.578 64.2637H179.461L185.444 47.3594H212.415L218.493 64.2637H226.281L203.014 1.01367H194.94ZM210.136 41.0908H187.628L198.739 9.56152L210.136 41.0908ZM189.06 40.0771H208.691L198.751 12.5762L189.06 40.0771Z" fill="black"/>
<path d="M165.216 57.5205H134.635V1.01367H127.418V64.2637H165.216V57.5205ZM135.648 56.5068H166.229V65.2773H126.404V0H135.648V56.5068Z" fill="black"/>
<path d="M77.3164 0L77.5596 0.664062L101.329 65.2773H91.376L85.2979 48.373H59.7559L53.7725 65.2773H43.7188L67.5859 0.663086L67.8301 0H77.3164ZM68.5361 1.01367L45.1738 64.2637H53.0566L59.0391 47.3594H86.0107L92.0889 64.2637H99.876L76.6084 1.01367H68.5361ZM83.7314 41.0908H61.2236L72.335 9.56152L83.7314 41.0908ZM62.6553 40.0771H82.2871L72.3467 12.5762L62.6553 40.0771Z" fill="black"/>
<path d="M38.8105 57.5205H8.23047V1.01367H1.0127V64.2637H38.8105V57.5205ZM9.24414 56.5068H39.8242V65.2773H0V0H9.24414V56.5068Z" fill="black"/>
</svg>
