<svg width="328" height="64" viewBox="0 0 328 64" fill="none" xmlns="http://www.w3.org/2000/svg">
<path d="M298.319 41.4153L277.868 1.87074H285.741L301.758 33.5426L318.046 1.87074H325.919L305.106 41.4153V62.1377H298.319V41.4153Z" fill="white"/>
<path d="M223.212 31.8232C223.212 25.6095 224.328 20.2102 226.56 15.6254C228.792 10.9802 231.899 7.39068 235.881 4.85693C239.923 2.26286 244.628 0.96582 249.997 0.96582C254.642 0.96582 258.775 1.84057 262.395 3.59006C266.014 5.27922 268.91 7.69231 271.082 10.8293C273.253 13.9664 274.52 17.586 274.882 21.6882H267.824C267.583 17.2844 265.863 13.8155 262.666 11.2818C259.529 8.68771 255.336 7.39068 250.088 7.39068C243.874 7.39068 239.018 9.5323 235.519 13.8155C232.02 18.0988 230.27 24.1013 230.27 31.8232C230.27 39.6055 231.929 45.6382 235.247 49.9214C238.626 54.2047 243.331 56.3463 249.364 56.3463C254.371 56.3463 258.443 54.5666 261.58 51.0073C264.717 47.448 266.497 42.652 266.919 36.6193H248.911V30.5564H274.882V62.1377H269.453L269 49.0165C267.07 53.2998 264.355 56.6781 260.856 59.1515C257.417 61.6249 253.496 62.8616 249.092 62.8616C243.904 62.8616 239.38 61.5646 235.519 58.9705C231.658 56.3764 228.641 52.7568 226.47 48.1116C224.298 43.4664 223.212 38.0369 223.212 31.8232Z" fill="white"/>
<path d="M161.044 32.7281C161.044 26.3334 162.16 20.7833 164.392 16.0778C166.685 11.312 169.852 7.60182 173.894 4.94742C177.996 2.29302 182.762 0.96582 188.191 0.96582C193.621 0.96582 198.356 2.29302 202.398 4.94742C206.501 7.60182 209.668 11.312 211.9 16.0778C214.192 20.7833 215.339 26.3334 215.339 32.7281C215.339 38.7609 214.192 44.0395 211.9 48.5641C209.668 53.0886 206.501 56.6178 202.398 59.1515C198.356 61.6249 193.621 62.8616 188.191 62.8616C182.762 62.8616 177.996 61.6249 173.894 59.1515C169.852 56.6178 166.685 53.0886 164.392 48.5641C162.16 44.0395 161.044 38.7609 161.044 32.7281ZM208.28 32.7281C208.28 24.7649 206.501 18.5512 202.941 14.087C199.442 9.62279 194.526 7.39068 188.191 7.39068C181.857 7.39068 176.91 9.62279 173.351 14.087C169.852 18.5512 168.102 24.7649 168.102 32.7281C168.102 40.2087 169.852 46.0303 173.351 50.1929C176.91 54.2952 181.857 56.3463 188.191 56.3463C194.526 56.3463 199.442 54.2952 202.941 50.1929C206.501 46.0303 208.28 40.2087 208.28 32.7281Z" fill="white"/>
<path d="M156.701 62.1377H120.686V1.87074H127.563V55.7129H156.701V62.1377Z" fill="white"/>
<path d="M57.6133 32.7281C57.6133 26.3334 58.7293 20.7833 60.9614 16.0778C63.2539 11.312 66.4211 7.60182 70.463 4.94742C74.5653 2.29302 79.3311 0.96582 84.7606 0.96582C90.19 0.96582 94.9257 2.29302 98.9676 4.94742C103.07 7.60182 106.237 11.312 108.469 16.0778C110.762 20.7833 111.908 26.3334 111.908 32.7281C111.908 38.7609 110.762 44.0395 108.469 48.5641C106.237 53.0886 103.07 56.6178 98.9676 59.1515C94.9257 61.6249 90.19 62.8616 84.7606 62.8616C79.3311 62.8616 74.5653 61.6249 70.463 59.1515C66.4211 56.6178 63.2539 53.0886 60.9614 48.5641C58.7293 44.0395 57.6133 38.7609 57.6133 32.7281ZM104.85 32.7281C104.85 24.7649 103.07 18.5512 99.5106 14.087C96.0116 9.62279 91.0949 7.39068 84.7606 7.39068C78.4262 7.39068 73.4794 9.62279 69.9201 14.087C66.4211 18.5512 64.6716 24.7649 64.6716 32.7281C64.6716 40.2087 66.4211 46.0303 69.9201 50.1929C73.4794 54.2952 78.4262 56.3463 84.7606 56.3463C91.0949 56.3463 96.0116 54.2952 99.5106 50.1929C103.07 46.0303 104.85 40.2087 104.85 32.7281Z" fill="white"/>
<path d="M41.9582 1.87074H48.745V62.1377H41.3248L7.84313 10.9198V62.1377H0.96582V1.87074H10.0149L41.9582 51.1883V1.87074Z" fill="white"/>
<path d="M286.334 0.905273L286.603 1.43457L301.764 31.416L317.457 0.905273H327.519L306.071 41.6533V63.1035H297.354V41.6514L276.281 0.905273H286.334ZM305.105 62.1377V41.415L325.919 1.87109H318.046L301.758 33.543L285.74 1.87109H277.868L298.319 41.415V62.1377H305.105Z" fill="black"/>
<path d="M230.27 31.8232C230.27 24.3425 231.911 18.4752 235.195 14.2217L235.519 13.8154C239.017 9.53243 243.873 7.39069 250.087 7.39062C255.335 7.39062 259.528 8.68816 262.665 11.2822C265.763 13.7368 267.474 17.0686 267.797 21.2783L267.823 21.6885H274.882C274.52 17.5862 273.253 13.9661 271.081 10.8291C268.909 7.69216 266.013 5.27898 262.394 3.58984C259 1.94978 255.156 1.07805 250.861 0.975586L249.997 0.96582C244.628 0.96582 239.922 2.2624 235.88 4.85645C231.898 7.39014 228.792 10.9799 226.56 15.625C224.327 20.2099 223.211 25.6095 223.211 31.8232L223.224 32.9795C223.351 38.7126 224.433 43.7566 226.469 48.1113C228.641 52.7565 231.658 56.3766 235.519 58.9707C239.259 61.4836 243.622 62.7789 248.607 62.8574L249.092 62.8613C253.496 62.8613 257.417 61.6248 260.855 59.1514C264.354 56.6779 267.07 53.2998 269 49.0166L269.452 62.1377H274.882V30.5566H248.911V36.6191H266.919C266.497 42.6518 264.716 47.4475 261.579 51.0068C258.442 54.5661 254.37 56.3467 249.363 56.3467V55.3809C254.111 55.3809 257.913 53.7077 260.855 50.3691C263.642 47.2074 265.334 42.9706 265.867 37.585H247.945V29.5908H275.848V63.1035H268.52L268.159 52.6729C266.366 55.5978 264.121 58.023 261.419 59.9346C257.809 62.5311 253.689 63.8271 249.092 63.8271C243.735 63.8271 239.018 62.4856 234.979 59.7725C230.958 57.0707 227.832 53.3079 225.594 48.5205C223.351 43.7231 222.246 38.1488 222.246 31.8232C222.246 25.4945 223.383 19.9444 225.691 15.2021C227.994 10.4124 231.215 6.68039 235.361 4.04199C239.576 1.33782 244.467 0 249.997 0C254.76 4.79699e-05 259.035 0.896911 262.802 2.71484C266.569 4.47281 269.601 6.99495 271.875 10.2793C274.15 13.5649 275.468 17.348 275.844 21.6035L275.937 22.6543H266.909L266.859 21.7412C266.632 17.5882 265.027 14.386 262.065 12.0391L262.058 12.0322L262.05 12.0264C259.131 9.61259 255.177 8.35645 250.087 8.35645C244.123 8.35651 239.557 10.3976 236.266 14.4268C232.954 18.4804 231.235 24.2372 231.235 31.8232C231.235 39.4777 232.868 45.2695 236.005 49.3232C239.179 53.3476 243.591 55.3809 249.363 55.3809V56.3467L248.802 56.3398C243.038 56.2102 238.52 54.071 235.247 49.9219C232.033 45.7725 230.375 39.9809 230.274 32.5479L230.27 31.8232Z" fill="black"/>
<path d="M215.339 32.7285C215.339 26.334 214.193 20.7836 211.9 16.0781C209.668 11.3123 206.501 7.60167 202.398 4.94727C198.483 2.37583 193.916 1.05007 188.698 0.969727L188.191 0.96582C182.762 0.96582 177.996 2.29286 173.894 4.94727C169.852 7.60166 166.685 11.3123 164.393 16.0781C162.161 20.7836 161.044 26.3339 161.044 32.7285L161.058 33.8506C161.188 39.4178 162.3 44.3227 164.393 48.5645C166.685 53.0887 169.852 56.6177 173.894 59.1514C177.739 61.4701 182.169 62.7017 187.181 62.8467L188.191 62.8613C193.621 62.8613 198.357 61.6248 202.398 59.1514C206.501 56.6177 209.668 53.0889 211.9 48.5645C214.05 44.3227 215.191 39.4178 215.325 33.8506L215.339 32.7285ZM207.314 32.7285C207.314 24.8993 205.564 18.9263 202.187 14.6895L202.182 14.6826C198.889 10.4814 194.269 8.35645 188.191 8.35645C182.114 8.35645 177.461 10.4822 174.106 14.6895C170.789 18.9264 169.068 24.8997 169.068 32.7285C169.068 40.0592 170.781 45.6273 174.08 49.5596C177.425 53.4144 182.085 55.3809 188.191 55.3809V56.3467L187.602 56.3398C181.549 56.2156 176.799 54.1673 173.351 50.1934C169.961 46.1609 168.213 40.5711 168.107 33.4248L168.103 32.7285C168.103 24.7654 169.852 18.5511 173.351 14.0869C176.91 9.62269 181.857 7.39062 188.191 7.39062L188.781 7.39746C194.832 7.53265 199.552 9.76228 202.941 14.0869C206.501 18.5511 208.28 24.7653 208.28 32.7285L208.275 33.4248C208.168 40.5711 206.389 46.1609 202.941 50.1934L202.609 50.5713C199.134 54.4213 194.328 56.3467 188.191 56.3467V55.3809C194.298 55.3809 198.924 53.4152 202.207 49.5664V49.5654C205.57 45.6327 207.314 40.0631 207.314 32.7285ZM216.305 32.7285C216.305 38.8842 215.134 44.3179 212.762 49.001L212.761 49C210.453 53.6746 207.167 57.3409 202.906 59.9727L202.902 59.9756C198.688 62.5546 193.772 63.8271 188.191 63.8271C182.61 63.8271 177.667 62.5542 173.396 59.9785L173.388 59.9746L173.381 59.9697C169.181 57.3369 165.898 53.6715 163.531 49.001L163.526 48.9912C161.217 44.3103 160.078 38.8806 160.078 32.7285C160.078 26.2227 161.214 20.5249 163.52 15.6641L163.522 15.6592C165.883 10.7509 169.162 6.90012 173.363 4.14062L173.369 4.13672C177.645 1.37014 182.597 0 188.191 0C193.783 3.47262e-06 198.706 1.36899 202.923 4.13672L203.32 4.39844C207.39 7.13623 210.538 10.8984 212.769 15.6553L212.986 16.1133C215.209 20.8753 216.305 26.4225 216.305 32.7285Z" fill="black"/>
<path d="M156.7 55.7129H127.562V1.87109H120.686V62.1377H156.7V55.7129ZM128.528 54.7471H157.666V63.1035H119.72V0.905273H128.528V54.7471Z" fill="black"/>
<path d="M111.907 32.7285C111.907 26.3339 110.761 20.7836 108.469 16.0781C106.306 11.4613 103.267 7.83458 99.3496 5.19922L98.9678 4.94727C95.0522 2.37588 90.4852 1.05014 85.2676 0.969727L84.7598 0.96582C79.3306 0.965896 74.565 2.29304 70.4629 4.94727C66.421 7.60167 63.2534 11.3123 60.9609 16.0781C58.7289 20.7836 57.6133 26.334 57.6133 32.7285L57.626 33.8506C57.7568 39.4178 58.8684 44.3227 60.9609 48.5645C63.2534 53.0889 66.421 56.6177 70.4629 59.1514C74.565 61.6247 79.3306 62.8613 84.7598 62.8613C90.0194 62.8613 94.6284 61.701 98.5859 59.3799L98.9678 59.1514C103.07 56.6177 106.237 53.0887 108.469 48.5645C110.618 44.3227 111.76 39.4178 111.895 33.8506L111.907 32.7285ZM103.884 32.7285C103.884 24.8991 102.133 18.9263 98.7549 14.6895L98.75 14.6826C95.4571 10.4815 90.8368 8.35645 84.7598 8.35645C78.6829 8.35655 74.0291 10.4824 70.6748 14.6895C67.357 18.9264 65.6367 24.8999 65.6367 32.7285C65.6368 40.0594 67.3499 45.6273 70.6494 49.5596L70.9668 49.916C74.2866 53.5357 78.845 55.3808 84.7598 55.3809V56.3467L84.1709 56.3398C78.1185 56.2157 73.3681 54.1673 69.9199 50.1934C66.5303 46.1609 64.7827 40.5711 64.6768 33.4248L64.6709 32.7285C64.6709 24.7653 66.4209 18.5511 69.9199 14.0869C73.4791 9.62291 78.4257 7.39073 84.7598 7.39062C91.094 7.39062 96.0108 9.62289 99.5098 14.0869C103.069 18.5511 104.85 24.7653 104.85 32.7285L104.844 33.4248C104.736 40.5711 102.958 46.1609 99.5098 50.1934L99.1777 50.5713C95.7023 54.4211 90.8961 56.3467 84.7598 56.3467V55.3809C90.866 55.3809 95.4926 53.415 98.7754 49.5664L98.7764 49.5654C102.139 45.6327 103.884 40.0631 103.884 32.7285ZM112.873 32.7285C112.873 38.88 111.703 44.3093 109.334 48.9902L109.335 48.9912C107.027 53.6703 103.738 57.3392 99.4746 59.9727L99.4717 59.9756C95.2569 62.5548 90.3407 63.8271 84.7598 63.8271C79.1787 63.8271 74.2358 62.5542 69.9639 59.9785L69.957 59.9746L69.9502 59.9697C65.7502 57.3369 62.4661 53.6716 60.0996 49.001L60.0947 48.9912C57.7856 44.3104 56.6475 38.8805 56.6475 32.7285C56.6475 26.2226 57.783 20.525 60.0889 15.6641L60.0908 15.6592C62.4519 10.7507 65.7306 6.90017 69.9326 4.14062L69.9385 4.13672C74.2139 1.37034 79.1659 7.56164e-05 84.7598 0C90.3511 0 95.2743 1.36913 99.4912 4.13672H99.4922C103.758 6.897 107.041 10.7515 109.344 15.668H109.343C111.708 20.5284 112.873 26.2249 112.873 32.7285Z" fill="black"/>
<path d="M48.7451 1.87109H41.958V51.1885L10.0146 1.87109H0.96582V62.1377H7.84277V10.9199L41.3242 62.1377H48.7451V1.87109ZM49.7109 63.1035H40.8018L40.5166 62.666L8.80859 14.1621V63.1035H0V0.905273H10.54L40.9922 47.9199V0.905273H49.7109V63.1035Z" fill="black"/>
</svg>
