<svg width="180" height="91" viewBox="0 0 180 91" fill="none" xmlns="http://www.w3.org/2000/svg">
<path d="M179.156 78.4467H0V90.8991H179.156V78.4467Z" fill="#F9F8FC"/>
<path d="M50.4813 2.21432H0V14.6667H19.0097V61.4237H31.4716V14.6635H50.4813V2.21432Z" fill="#F9F8FC"/>
<path d="M99.1183 14.6635V2.21432H60.2109V61.446H99.1183V48.9586H72.6729V37.668H99.1183V25.2156H72.6729V14.6604H99.1183V14.6635Z" fill="#F9F8FC"/>
<path d="M179.738 61.6957L164.679 46.587C173.573 32.3514 169.273 13.5707 155.084 4.64737C140.886 -4.27595 122.177 0.0380545 113.283 14.2704C104.389 28.506 108.689 47.2867 122.878 56.2101C132.927 62.5334 145.736 62.3858 155.651 55.8538L161.499 61.7213H179.741V61.6957H179.738ZM139.044 47.8805C129.449 47.8805 121.662 40.0807 121.662 30.4415C121.662 20.8024 129.436 13.0026 139.044 13.0026C148.651 13.0026 156.425 20.8024 156.425 30.4415C156.425 40.0807 148.638 47.8677 139.044 47.8805Z" fill="#F9F8FC"/>
</svg>
