<svg width="167" height="41" viewBox="0 0 167 41" fill="none" xmlns="http://www.w3.org/2000/svg">
<path d="M79.2151 34.6831H0V40.189H79.2151V34.6831Z" fill="#F9F8FC"/>
<path d="M147.533 34.6831H123.639V40.189H147.533V34.6831Z" fill="#F9F8FC"/>
<path d="M117.294 0.976562H85.6289V6.48248H117.294V0.976562Z" fill="#F9F8FC"/>
<path d="M22.3206 0.976562H0V6.48248H8.40525V27.1564H13.9154V6.48107H22.3206V0.976562Z" fill="#F9F8FC"/>
<path d="M43.8262 6.48107V0.976562H26.623V27.1663H43.8262V21.6449H32.1332V16.6527H43.8262V11.1467H32.1332V6.47967H43.8262V6.48107Z" fill="#F9F8FC"/>
<path d="M79.4724 27.276L72.814 20.5956C76.7465 14.3012 74.8454 5.99718 68.5718 2.05167C62.2939 -1.89384 54.0215 0.0136318 50.089 6.30658C46.1565 12.6009 48.0577 20.905 54.3313 24.8505C58.7745 27.6464 64.4384 27.5811 68.8221 24.6929L71.408 27.2873H79.4738V27.276H79.4724ZM61.4791 21.1675C57.2368 21.1675 53.7938 17.7188 53.7938 13.4568C53.7938 9.19475 57.2312 5.74598 61.4791 5.74598C65.7271 5.74598 69.1645 9.19475 69.1645 13.4568C69.1645 17.7188 65.7214 21.1618 61.4791 21.1675Z" fill="#F9F8FC"/>
<path d="M96.615 40.7243C90.4972 40.7186 85.5368 35.758 85.5254 29.6398V13.9211H91.1557V29.6398C91.1557 32.6561 93.5989 35.0994 96.615 35.0994C99.6312 35.0994 102.074 32.6561 102.074 29.6398V13.9211H107.699V29.6398C107.693 35.758 102.733 40.7186 96.6093 40.7243" fill="#F9F8FC"/>
<path d="M117.293 13.9592H111.787V40.1912H117.293V13.9592Z" fill="#F9F8FC"/>
<path d="M139.143 27.1621H123.639V0.976562H129.145V21.6406H139.137V27.1621H139.143Z" fill="#F9F8FC"/>
<path d="M155.727 37.4282C155.727 38.9694 154.479 40.2178 152.936 40.2178C151.393 40.2178 150.146 38.9694 150.146 37.4282C150.146 35.8871 151.395 34.6387 152.936 34.6387C154.477 34.6387 155.727 35.8871 155.727 37.4282Z" fill="#F9F8FC"/>
<path d="M155.066 0.976562L143.615 27.1508H149.65L155.072 14.4669L160.495 27.1508H166.524L155.066 0.976562Z" fill="#F9F8FC"/>
<path d="M166.516 35.8505V34.6865H162.885V40.2164H166.516V39.0595H164.049V37.9954H166.516V36.8315H164.049V35.8505H166.516Z" fill="#F9F8FC"/>
<path d="M159.844 34.6865L157.42 40.2248H158.698L159.844 37.5436L160.989 40.2248H162.267L159.844 34.6865Z" fill="#F9F8FC"/>
</svg>
