<svg width="16" height="16" viewBox="0 0 16 16" fill="none" xmlns="http://www.w3.org/2000/svg">
<path d="M4.43335 7.19999C5.40001 9.09999 6.93335 10.6333 8.83336 11.6L10.3 10.1333C10.4667 9.96665 10.7334 9.89998 10.9667 9.96665C11.7 10.2 12.5 10.3333 13.3334 10.3333C13.7 10.3333 14 10.6333 14 11V13.3333C14 13.7 13.7 14 13.3334 14C7.06668 14 2 8.93331 2 2.66666C2 2.3 2.3 2 2.66667 2H5.00001C5.36668 2 5.66668 2.3 5.66668 2.66666C5.66668 3.5 5.80001 4.3 6.03335 5.03332C6.10001 5.26666 6.06668 5.53332 5.86668 5.69999L4.43335 7.19999Z" fill="white"/>
</svg>
