<svg width="33" height="34" viewBox="0 0 33 34" fill="none" xmlns="http://www.w3.org/2000/svg">
<mask id="mask0_2962_2663" style="mask-type:alpha" maskUnits="userSpaceOnUse" x="0" y="0" width="33" height="34">
<path d="M22.4193 26.3986C22.413 26.3986 22.4066 26.3985 22.4002 26.3981C18.4252 26.3574 14.6878 24.7866 11.8756 21.9744C9.06061 19.1594 7.48947 15.4169 7.45166 11.4362C7.45157 11.4216 7.45204 11.4053 7.45306 11.3908C7.5788 9.65876 9.07585 8.30201 10.8612 8.30201L12.0783 8.30154C12.2935 8.30154 12.4877 8.43111 12.5702 8.62988C12.6921 8.92377 12.8183 9.21694 12.9446 9.51032C13.2276 10.1678 13.5201 10.8476 13.765 11.5387L13.7868 11.6003C13.953 12.0661 14.1806 12.7041 13.8908 13.3073C13.8259 13.4425 13.6407 13.828 12.3461 14.4708C12.994 16.049 13.9398 17.4658 15.1621 18.6881C16.3844 19.9104 17.8014 20.8562 19.3799 21.5041C20.0253 20.2077 20.4085 20.0237 20.5428 19.9591C20.7333 19.8675 20.9467 19.8212 21.177 19.8212C21.572 19.8212 21.9487 19.9558 22.2514 20.064L22.3121 20.0856C23.0027 20.3301 23.6827 20.6227 24.3403 20.9057C24.6335 21.0319 24.9265 21.158 25.2202 21.2798C25.4189 21.3623 25.5485 21.5562 25.5485 21.7714C25.5485 22.527 25.5485 22.842 25.5438 22.9888H25.5481C25.5481 24.7719 24.1956 26.267 22.4675 26.3964C22.4513 26.3978 22.4353 26.3986 22.4193 26.3986ZM8.51634 11.4475C8.55607 15.1376 10.016 18.6094 12.6283 21.2217C15.2405 23.8339 18.7109 25.2937 22.4027 25.3336C23.552 25.2391 24.4835 24.1917 24.4835 22.9888C24.4835 22.9863 24.4835 22.9838 24.4835 22.9813C24.4838 22.9351 24.4839 22.4656 24.4839 22.1253C24.2956 22.0455 24.1075 21.9645 23.9194 21.8835C23.2777 21.6074 22.6142 21.3218 21.9563 21.0891L21.893 21.0665C21.656 20.9818 21.3874 20.8858 21.1769 20.8858C21.1103 20.8858 21.0559 20.8954 21.0112 20.9153C20.8943 20.9982 20.5606 21.4616 20.1435 22.3767C20.0055 22.6792 19.7511 22.7119 19.6482 22.7119C19.5855 22.7119 19.5233 22.7008 19.4645 22.6792C17.5578 21.9781 15.857 20.8885 14.4092 19.4407C12.9613 17.9929 11.8718 16.2921 11.1708 14.3855C11.1623 14.3622 11.1554 14.3384 11.1501 14.3143C11.1049 14.1053 11.1859 13.837 11.4683 13.7089C12.3851 13.293 12.8508 12.9573 12.9346 12.8388C13.0254 12.6342 12.8918 12.2597 12.7842 11.958L12.7614 11.8942C12.5283 11.2362 12.2428 10.5727 11.9667 9.93118C11.8857 9.74285 11.8046 9.5546 11.7247 9.36623L10.8611 9.36656C9.65857 9.36656 8.61121 10.2981 8.51634 11.4475ZM16.5 33.8501C7.40188 33.8501 0 26.4483 0 17.3501C0 8.25198 7.40188 0.850098 16.5 0.850098C25.5981 0.850098 33 8.25198 33 17.3501C33 26.4483 25.5982 33.8501 16.5 33.8501ZM16.5 1.91461C7.98885 1.91461 1.06452 8.83895 1.06452 17.3501C1.06452 25.8612 7.98885 32.7856 16.5 32.7856C25.0111 32.7856 31.9355 25.8612 31.9355 17.3501C31.9355 8.83895 25.0111 1.91461 16.5 1.91461Z" fill="white"/>
</mask>
<g mask="url(#mask0_2962_2663)">
<circle cx="16.5008" cy="17.35" r="13.9615" fill="white"/>
</g>
</svg>
