<svg width="16" height="16" viewBox="0 0 16 16" fill="none" xmlns="http://www.w3.org/2000/svg">
<path d="M5.02779 7.33332C5.83334 8.91665 7.11113 10.1944 8.69447 11L9.91666 9.77774C10.0556 9.63887 10.2778 9.58332 10.4723 9.63887C11.0833 9.83334 11.75 9.94441 12.4445 9.94441C12.75 9.94441 13 10.1944 13 10.5V12.4444C13 12.75 12.75 13 12.4445 13C7.22223 13 3 8.77776 3 3.55555C3 3.25 3.25 3 3.55556 3H5.50001C5.80556 3 6.05556 3.25 6.05556 3.55555C6.05556 4.25 6.16668 4.91666 6.36112 5.52777C6.41668 5.72222 6.3889 5.94443 6.22223 6.08333L5.02779 7.33332Z" fill="white"/>
</svg>
