<svg width="100" height="100" viewBox="0 0 100 100" fill="none"
  xmlns="http://www.w3.org/2000/svg">
  <path fill-rule="evenodd" clip-rule="evenodd" d="M50 10C51.5412 10 52.7907 11.2495 52.7907 12.7907V20.2326C52.7907 21.7738 51.5412 23.0233 50 23.0233C48.4588 23.0233 47.2093 21.7738 47.2093 20.2326V12.7907C47.2093 11.2495 48.4588 10 50 10ZM18.9996 19.1761C20.0396 18.0387 21.8048 17.9596 22.9423 18.9996L31.2103 26.559C32.3478 27.599 32.4268 29.3642 31.3868 30.5017C30.3468 31.6392 28.5816 31.7182 27.4441 30.6782L19.1761 23.1188C18.0387 22.0788 17.9596 20.3136 18.9996 19.1761ZM81.0006 19.1761C82.0406 20.3136 81.9613 22.0788 80.8238 23.1188L72.5559 30.6782C71.4184 31.7182 69.6532 31.6392 68.6132 30.5017C67.5732 29.3642 67.6521 27.599 68.7896 26.559L77.0579 18.9996C78.1953 17.9596 79.9602 18.0387 81.0006 19.1761ZM50 34.186C41.2662 34.186 34.186 41.2662 34.186 50C34.186 58.7338 41.2662 65.814 50 65.814C58.7338 65.814 65.814 58.7338 65.814 50C65.814 41.2662 58.7338 34.186 50 34.186ZM28.6047 50C28.6047 38.1837 38.1837 28.6047 50 28.6047C61.8162 28.6047 71.3954 38.1837 71.3954 50C71.3954 61.8162 61.8162 71.3954 50 71.3954C38.1837 71.3954 28.6047 61.8162 28.6047 50ZM10 50C10 48.4588 11.2495 47.2093 12.7907 47.2093H20.2326C21.7738 47.2093 23.0233 48.4588 23.0233 50C23.0233 51.5412 21.7738 52.7907 20.2326 52.7907H12.7907C11.2495 52.7907 10 51.5412 10 50ZM76.9767 50C76.9767 48.4588 78.2262 47.2093 79.7674 47.2093H87.2093C88.7505 47.2093 90 48.4588 90 50C90 51.5412 88.7505 52.7907 87.2093 52.7907H79.7674C78.2262 52.7907 76.9767 51.5412 76.9767 50ZM68.6995 68.6984C69.7894 67.6086 71.5565 67.6086 72.6463 68.6984L80.9142 76.9674C82.0041 78.0573 82.0037 79.8244 80.9139 80.9142C79.824 82.0041 78.0569 82.0037 76.9674 80.9139L68.6995 72.6448C67.6097 71.555 67.6097 69.7883 68.6995 68.6984ZM31.3011 68.6988C32.3909 69.7886 32.3909 71.5557 31.3011 72.6456L23.0323 80.9142C21.9425 82.0041 20.1756 82.0041 19.0857 80.9142C17.9959 79.8244 17.9959 78.0573 19.0857 76.9678L27.3545 68.6988C28.4443 67.6089 30.2112 67.6089 31.3011 68.6988ZM50 76.9767C51.5412 76.9767 52.7907 78.2262 52.7907 79.7674V87.2093C52.7907 88.7505 51.5412 90 50 90C48.4588 90 47.2093 88.7505 47.2093 87.2093V79.7674C47.2093 78.2262 48.4588 76.9767 50 76.9767Z" fill="black"/>
</svg>
